<svg xmlns="http://www.w3.org/2000/svg" viewBox="0 0 424.3 113"><style type="text/css">.st0{fill:#FFFFFF;}</style><path class="st0" d="M38.2 48.3c-12.8-2.8-14.4-3-14.4-4.5 0-1.4 1.4-2.3 5.4-2.3 5.5 0 13.3 1.8 17.4 4.8l9.5-15.9c-6-3.9-14.2-6.6-25-6.6-17.5 0-28.2 7.1-28.2 20.8 0 13.5 10.5 18.4 19.2 20.3 11.8 2.5 13.8 2.9 13.8 4.5 0 2.1-3 2.4-5.5 2.4-9.4 0-15.9-3.4-20.3-6.9L0 81.6c5.8 5 15.7 7.8 27.8 7.8 18.4 0 28.9-6.3 28.9-20.9 0-12.4-7.4-17.8-18.5-20.2zM102.1 55.7c0 9.4-4.6 14.3-10.8 14.3-4.8 0-8.2-2.9-8.2-11.1V25h-21v40.3c0 15.4 8.2 24 21.1 24 9.4 0 15.9-5.3 19.9-11.3v10h19V25h-20v30.7zM173.2 23.6c-8.6 0-16.1 3.8-20.1 10.1V25h-20v88h20V79c4 5.8 10.8 10.5 20.4 10.5 14.2 0 27-11 27-32.9s-12.9-33-27.3-33zm-6.9 46.1c-7.3 0-13.6-4.9-13.6-13.1 0-8.3 6.4-13.1 13.6-13.1 7.3 0 13.6 4.9 13.6 13.1s-6.3 13.1-13.6 13.1zM236.9 23.8c-20.2 0-32.7 13.9-32.7 32.4 0 18 12.1 33.2 34.6 33.2 12.3 0 19.7-3 24.9-6.5l-7.8-16.8c-4.4 2.9-10 4.5-16.5 4.5-5.1 0-11.6-1.7-14.5-7.5l-.1-.1h43.3v-5.7c0-21.2-12.5-33.5-31.2-33.5zM224.3 49c1.8-6 6.3-8.4 11.8-8.4 6.1 0 10 3.4 10.6 8.4h-22.4zM295.1 36.1V25h-20v63h20V60.2c0-10.9 5.6-15 14.6-15 2.8 0 5.4.4 8.4 1.3V24.8c-2-.6-3.5-1-5.9-1-8.8 0-14.1 4.8-17.1 12.3zM362.7 23.6c-9.6 0-16.6 4.8-20.6 10.5V0h-20v88h20v-8.6c5 6.4 11.6 10.1 20.2 10.1 14.4 0 27.4-11 27.4-32.9s-12.8-33-27-33zm-7.1 46.1c-7.3 0-13.6-4.9-13.6-13.1 0-8.3 6.4-13.1 13.6-13.1 7.3 0 13.6 4.9 13.6 13.1.1 8.2-6.3 13.1-13.6 13.1zM411.1 61.6c-7.5 0-13.1 5.6-13.1 13.1s5.6 13.1 13.1 13.1 13.1-5.6 13.1-13.1-5.6-13.1-13.1-13.1z"/></svg>